<?xml version="1.0" standalone="no"?>
<!DOCTYPE svg PUBLIC "-//W3C//DTD SVG 20010904//EN"
 "http://www.w3.org/TR/2001/REC-SVG-20010904/DTD/svg10.dtd">
<svg version="1.0" xmlns="http://www.w3.org/2000/svg"
 width="715.000000pt" height="715.000000pt" viewBox="0 0 715.000000 715.000000"
 preserveAspectRatio="xMidYMid meet">
<metadata>
Created by potrace 1.11, written by Peter Selinger 2001-2013
</metadata>
<g transform="translate(0.000000,715.000000) scale(0.100000,-0.100000)"
fill="#000000" stroke="none">
<path d="M860 6370 l0 -780 1505 0 c828 0 1505 -2 1505 -5 0 -3 -693 -990
-1540 -2193 l-1540 -2187 0 -597 0 -598 2780 0 2780 0 0 780 0 780 -1580 0
c-869 0 -1580 3 -1580 6 0 3 693 991 1540 2195 l1540 2189 0 595 0 595 -2705
0 -2705 0 0 -780z"/>
</g>
</svg>
